<svg width="139" height="32" viewBox="0 0 139 32" fill="none" xmlns="http://www.w3.org/2000/svg">
<path fill-rule="evenodd" clip-rule="evenodd" d="M69.4561 6.75068C69.4561 2.89315 72.3501 0 76.4719 0C78.3321 0 79.7847 0.489004 80.1222 0.602629L80.1552 0.613698V2.36712C79.9798 2.27945 78.3136 1.57808 76.5596 1.57808C73.5779 1.57808 71.3855 3.68219 71.3855 6.48767C71.3855 9.38082 73.4902 11.3973 76.5596 11.3973C78.5766 11.3973 79.9798 10.8712 80.0675 10.7836V12.6247C79.9798 12.7123 78.5766 13.1507 76.3842 13.1507C71.5609 13.1507 69.4561 9.46849 69.4561 6.75068ZM11.6637 0.175415H9.90978V7.71514C9.90978 10.6083 8.24353 11.485 6.2265 11.485C3.77098 11.485 2.54322 10.1699 2.54322 7.71514V0.175415H0.613881V8.06582C0.613881 11.5727 3.0694 13.1508 6.1388 13.1508C9.64669 13.1508 11.6637 11.222 11.6637 8.06582V0.175415ZM25.1691 0.175415H23.4151V10.0823L15.6978 0.175415H14.2069V13.0631H15.8732V3.15623L23.5905 13.0631H25.1691V0.175415ZM28.1508 0.175415H29.9924V13.0631H28.1508V0.175415ZM41.0423 0.175415H31.7464V1.7535H35.5174V13.0631H37.359V1.7535H41.0423V0.175415ZM42.7085 0.175415H50.0751V1.7535H44.5502V5.61103H49.812V7.18911H44.5502V11.3973H50.1628V13.0631H42.7085V0.175415ZM56.8277 0.175415H52.5306V13.0631H56.8277C61.3003 13.0631 63.6681 9.90692 63.6681 6.66308C63.6681 3.59459 61.5634 0.175415 56.8277 0.175415ZM54.3722 11.3973V1.7535H56.5647C60.0725 1.7535 61.7388 4.03295 61.7388 6.57541C61.7388 9.29322 59.8971 11.3973 56.5647 11.3973H54.3722ZM97.1685 0.175415H99.0101V11.3973H104.36V13.0631H97.1685V0.175415ZM123.916 0.175415H119.97V13.0631H121.811V7.45212H124.091L127.599 13.0631H129.792C128.915 11.8357 125.933 7.01377 125.933 7.01377C126.196 6.9261 128.126 6.22473 128.126 3.76993C128.126 1.49048 126.547 0.175415 123.916 0.175415ZM121.811 5.87404V1.7535H123.653C125.407 1.7535 126.196 2.63021 126.196 3.8576C126.196 4.90966 125.582 5.96171 123.653 5.96171H121.811V5.87404ZM87.9602 0C84.1892 0 81.1198 2.98082 81.1198 6.57534C81.1198 10.2575 84.1015 13.1507 87.9602 13.1507C91.7312 13.1507 94.8006 10.1699 94.8006 6.57534C94.8006 2.98082 91.7312 0 87.9602 0ZM87.9602 11.4849C85.2416 11.4849 83.0492 9.29315 83.0492 6.57534C83.0492 3.85753 85.2416 1.66575 87.9602 1.66575C90.6788 1.66575 92.8713 3.85753 92.8713 6.57534C92.8713 9.29315 90.7665 11.4849 87.9602 11.4849ZM104.272 6.57534C104.272 2.98082 107.341 0 111.112 0C114.883 0 117.865 2.98082 117.953 6.57534C117.953 10.1699 114.883 13.1507 111.112 13.1507C107.254 13.1507 104.272 10.2575 104.272 6.57534ZM106.201 6.57534C106.201 9.29315 108.394 11.4849 111.112 11.4849C113.831 11.4849 116.023 9.29315 116.023 6.57534C116.023 3.85753 113.831 1.66575 111.112 1.66575C108.394 1.66575 106.201 3.85753 106.201 6.57534ZM134.966 0C132.423 0 130.844 1.49041 130.844 3.41918C130.844 5.1726 131.809 6.13698 133.212 6.75068C133.332 6.81058 133.534 6.90117 133.765 7.00498L133.765 7.00504C134.21 7.20511 134.765 7.45425 135.054 7.62739L135.129 7.66494C135.845 8.02139 137.071 8.63141 137.071 9.7315C137.071 10.6082 136.194 11.4849 134.44 11.4849C132.686 11.4849 131.809 10.7836 131.633 10.6082L130.756 12.1863C130.776 12.1959 130.806 12.215 130.847 12.2415L130.847 12.2416C131.181 12.4561 132.264 13.1507 134.527 13.1507C136.808 13.1507 139 12.0986 139 9.55616C139 7.36438 136.983 6.4 135.843 5.87397C135.537 5.75176 135.146 5.54437 134.819 5.37054L134.819 5.3704C134.676 5.29488 134.546 5.2257 134.44 5.1726C133.563 4.73424 132.861 4.20822 132.861 3.24383C132.861 2.36712 133.65 1.57808 135.141 1.57808C136.632 1.57808 137.509 2.10411 137.685 2.27945L138.211 0.701369C138.17 0.701369 138.078 0.66373 137.936 0.605891C137.465 0.414053 136.448 0 134.966 0ZM15.7855 18.937H22.6259V20.6027H17.6271V24.2849H22.6259V25.863H17.6271V31.8247H15.7855V18.937ZM6.84038 18.8493C3.0694 18.8493 0 21.8301 0 25.4247C0 29.1069 2.9817 32 6.84038 32C10.6114 32 13.6808 29.0192 13.6808 25.4247C13.6808 21.7425 10.6991 18.8493 6.84038 18.8493ZM6.84038 30.3343C4.12177 30.3343 1.92934 28.1425 1.92934 25.4247C1.92934 22.7069 4.12177 20.5151 6.84038 20.5151C9.55899 20.5151 11.7514 22.7069 11.7514 25.4247C11.7514 28.1425 9.64669 30.3343 6.84038 30.3343ZM58.2309 18.937H59.9848V31.8247H58.4063L50.6889 21.9178V31.8247H48.935V18.937H50.5135L58.2309 28.9315V18.937ZM116.462 18.937H114.708V28.9315L106.903 18.937H105.412V31.8247H107.166V21.9178L114.796 31.8247H116.462V18.937ZM70.7716 18.937H80.0675V20.6027H76.3842V31.8247H74.5426V20.6027H70.7716V18.937ZM90.4157 18.937H81.1198V20.6027H84.8908V31.8247H86.7325V20.6027H90.4157V18.937ZM39.376 18.937H46.6549V20.6027H41.2176V24.4603H46.4795V26.0384H41.2176V30.2466H46.8303V31.8247H39.376V18.937ZM69.6316 18.937H62.3527V31.8247H69.8069V30.2466H64.1943V26.0384H69.4562V24.4603H64.1943V20.6027H69.6316V18.937ZM90.1526 25.4247C90.1526 21.8301 93.222 18.8493 96.993 18.8493C100.764 18.8493 103.746 21.7425 103.833 25.4247C103.833 29.0192 100.764 32 96.993 32C93.1343 32 90.1526 29.1069 90.1526 25.4247ZM92.082 25.4247C92.082 28.1425 94.2744 30.3343 96.993 30.3343C99.7116 30.3343 101.904 28.1425 101.904 25.4247C101.904 22.7069 99.7116 20.5151 96.993 20.5151C94.2744 20.5151 92.082 22.7069 92.082 25.4247ZM32.711 18.937H28.5016V31.8247H32.8864C36.1312 31.8247 37.2713 29.9836 37.2713 28.4055C37.2713 25.6877 35.0789 25.1616 34.9035 25.1616C34.9153 25.1557 34.9336 25.1478 34.9574 25.1375L34.9574 25.1374C35.2853 24.9952 36.6574 24.3996 36.6574 22.3562C36.6574 20.5151 35.4297 18.937 32.711 18.937ZM30.3432 24.5479V20.6027H32.448C33.9388 20.6027 34.8158 21.3041 34.8158 22.5315C34.8158 23.8466 33.8511 24.5479 32.448 24.5479H30.3432ZM30.3432 30.2466V26.126H32.7987C34.6404 26.126 35.4297 27.0027 35.4297 28.2301C35.4297 29.1945 34.9035 30.2466 32.7987 30.2466H30.3432ZM117.953 30.5977C117.953 29.8961 118.567 29.2822 119.268 29.2822C119.97 29.2822 120.584 29.8961 120.584 30.5977C120.584 31.2992 119.97 31.9131 119.268 31.9131C118.567 31.9131 117.953 31.2992 117.953 30.5977Z" fill="black"/>
</svg>
